<svg xmlns="http://www.w3.org/2000/svg" data-name="Layer 1" viewBox="0 0 128 160" x="0px" y="0px"><title>CameraRoll
</title><path d="M106,28v72H22V28h84m.78-8H21.22A7.22,7.22,0,0,0,14,27.22v73.56A7.22,7.22,0,0,0,21.22,108h85.56a7.22,7.22,0,0,0,7.22-7.22V27.22A7.22,7.22,0,0,0,106.78,20Z"/><path d="M26.33,106.33l-5.66-5.66,32-32a13.21,13.21,0,0,1,18.68,0l7.49,7.48-5.66,5.66-7.48-7.49a5.23,5.23,0,0,0-7.38,0Z"/><path d="M54.33,106.33l-5.66-5.66,32-32a13.21,13.21,0,0,1,18.68,0l12.49,12.48-5.66,5.66L93.69,74.34a5.23,5.23,0,0,0-7.38,0Z"/><circle cx="85" cy="45" r="9"/></svg>