<svg xmlns="http://www.w3.org/2000/svg" xmlns:xlink="http://www.w3.org/1999/xlink" xml:space="preserve" version="1.1" style="shape-rendering:geometricPrecision;text-rendering:geometricPrecision;image-rendering:optimizeQuality;" viewBox="0 0 1000 1250" x="0px" y="0px" fill-rule="evenodd" clip-rule="evenodd"><defs><style type="text/css">
   
    .fil0 {fill:black;fill-rule:nonzero}
   
  </style></defs><g><path class="fil0" d="M500 60c121,0 232,49 311,129 80,80 129,190 129,311 0,121 -49,232 -129,311 -79,80 -190,129 -311,129 -121,0 -231,-49 -311,-129 -80,-79 -129,-190 -129,-311 0,-121 49,-231 129,-311 80,-80 190,-129 311,-129zm283 157c-73,-72 -173,-117 -283,-117 -110,0 -210,45 -283,117 -72,73 -117,173 -117,283 0,110 45,210 117,283 73,72 173,117 283,117 110,0 210,-45 283,-117 72,-73 117,-173 117,-283 0,-110 -45,-210 -117,-283z"/></g><text x="0" y="1015" fill="#000000" font-size="5px" font-weight="bold" font-family="'Helvetica Neue', Helvetica, Arial-Unicode, Arial, Sans-serif">Created by Royyan Razka</text><text x="0" y="1020" fill="#000000" font-size="5px" font-weight="bold" font-family="'Helvetica Neue', Helvetica, Arial-Unicode, Arial, Sans-serif">from the Noun Project</text></svg>